<?xml version="1.0" encoding="utf-8"?>
<!-- Generator: Adobe Illustrator 15.0.0, SVG Export Plug-In . SVG Version: 6.00 Build 0)  -->
<!DOCTYPE svg PUBLIC "-//W3C//DTD SVG 1.1 Basic//EN" "http://www.w3.org/Graphics/SVG/1.1/DTD/svg11-basic.dtd">
<svg version="1.1" baseProfile="basic" id="Layer_1"
	 xmlns="http://www.w3.org/2000/svg" xmlns:xlink="http://www.w3.org/1999/xlink" x="0px" y="0px" width="1000px" height="1000px"
	 viewBox="0 0 1000 1000" xml:space="preserve">
<g>
	<path fill="none" d="M834.717,82.262H165.558c11.001,168.289,89.05,315.727,205.154,382.637l61.562,35.477l-61.562,35.477
		C254.607,602.73,176.559,750.169,165.558,918.488h669.159c-10.972-168.319-89.035-315.758-205.124-382.637l-61.569-35.477
		l61.569-35.477C745.682,397.988,823.745,250.551,834.717,82.262z M548.309,399.019c-51.582,35.393-35.477,190.552,3.312,214.401
		c0.511,0.236,0.991,0.526,1.479,0.763c0.878,0.442,1.732,0.938,2.617,1.236c0,0.061-0.016,0.061-0.045,0.114
		c104.721,53.223,171.241,231.91,171.241,231.91H502.846h-5.387H273.376c0,0,66.528-178.657,171.227-231.91
		c-0.015-0.03-0.038-0.054-0.038-0.114c0.938-0.328,1.846-0.824,2.762-1.29c0.435-0.236,0.847-0.473,1.305-0.679
		c38.811-23.788,54.947-179.009,3.334-214.432c-77.69-44.235-126.747-176.109-126.747-176.109h172.844h4.166h172.829
		C675.057,222.909,626.014,354.783,548.309,399.019z"/>
	<path d="M917.953,41.314V0.375H82.336v40.939c0,188.263,75.34,361.282,195.977,459.061
		C157.676,598.146,82.336,771.173,82.336,959.436v40.939h835.617v-40.939c0-188.263-75.317-361.29-195.961-459.061
		C842.636,402.597,917.953,229.577,917.953,41.314z M629.593,535.852c116.089,66.879,194.152,214.317,205.124,382.637H165.558
		c11.001-168.319,89.05-315.758,205.154-382.637l61.562-35.477l-61.562-35.477c-116.104-66.91-194.153-214.348-205.154-382.637
		h669.159c-10.972,168.289-89.035,315.727-205.124,382.637l-61.569,35.477L629.593,535.852z"/>
	<path d="M502.228,222.909h-4.166H325.218c0,0,49.057,131.874,126.747,176.109c51.613,35.423,35.477,190.644-3.334,214.432
		c-0.458,0.206-0.87,0.442-1.305,0.679c-0.916,0.466-1.823,0.962-2.762,1.29c0,0.061,0.023,0.084,0.038,0.114
		c-104.698,53.253-171.227,231.91-171.227,231.91h224.083h5.387h224.067c0,0-66.521-178.688-171.241-231.91
		c0.029-0.054,0.045-0.054,0.045-0.114c-0.885-0.298-1.739-0.794-2.617-1.236c-0.488-0.236-0.969-0.526-1.479-0.763
		c-38.788-23.85-54.894-179.009-3.312-214.401c77.705-44.235,126.748-176.109,126.748-176.109H502.228z"/>
</g>
</svg>
