<?xml version="1.0" encoding="utf-8"?>
<!-- Generator: Adobe Illustrator 15.0.0, SVG Export Plug-In . SVG Version: 6.00 Build 0)  -->
<!DOCTYPE svg PUBLIC "-//W3C//DTD SVG 1.1 Basic//EN" "http://www.w3.org/Graphics/SVG/1.1/DTD/svg11-basic.dtd">
<svg version="1.1" baseProfile="basic" id="Layer_1"
	 xmlns="http://www.w3.org/2000/svg" xmlns:xlink="http://www.w3.org/1999/xlink" x="0px" y="0px" width="1000px" height="1000px"
	 viewBox="0 0 1000 1000" xml:space="preserve">
<g>
	<rect x="487.455" y="480.38" fill="none" width="152.046" height="97.935"/>
	<polygon fill="none" points="799.23,480.38 697.973,480.38 697.973,578.314 750.891,578.314 	"/>
	<polygon fill="none" points="873.716,329.475 697.973,329.475 697.973,421.89 828.077,421.89 	"/>
	<polygon fill="none" points="428.983,329.475 247.32,329.475 292.951,421.89 428.983,421.89 	"/>
	<rect x="487.455" y="329.475" fill="none" width="152.046" height="92.415"/>
	<polygon fill="none" points="428.983,578.314 428.983,480.38 321.813,480.38 370.138,578.314 	"/>
	<path d="M784.658,636.771l215.683-432.057l-50.651-29.243l-47.111,95.516H697.973h-58.472H487.455h-58.472H218.473l-47.111-95.47
		v-0.045H0.448v58.49h134.85l201.088,402.81H784.658z M697.973,329.475h175.743l-45.639,92.415H697.973V329.475z M697.973,480.38
		H799.23l-48.34,97.935h-52.918V480.38z M487.455,329.475h152.046v92.415H487.455V329.475z M487.455,480.38h152.046v97.935H487.455
		V480.38z M247.32,329.475h181.663v92.415H292.951L247.32,329.475z M428.983,480.38v97.935h-58.846l-48.324-97.935H428.983z"/>
	<path d="M392.789,671.508c-42.327,0-76.645,34.302-76.645,76.645c0,42.324,34.317,76.627,76.645,76.627
		c42.328,0,76.646-34.303,76.646-76.627C469.435,705.81,435.117,671.508,392.789,671.508z"/>
	<path d="M749.12,671.508c-42.327,0-76.629,34.302-76.629,76.645c0,42.324,34.302,76.627,76.629,76.627
		c42.32,0,76.638-34.303,76.638-76.627C825.758,705.81,791.44,671.508,749.12,671.508z"/>
</g>
</svg>
