<?xml version="1.0" encoding="utf-8"?>
<!-- Generator: Adobe Illustrator 15.0.0, SVG Export Plug-In . SVG Version: 6.00 Build 0)  -->
<!DOCTYPE svg PUBLIC "-//W3C//DTD SVG 1.1 Basic//EN" "http://www.w3.org/Graphics/SVG/1.1/DTD/svg11-basic.dtd">
<svg version="1.1" baseProfile="basic" id="Layer_1"
	 xmlns="http://www.w3.org/2000/svg" xmlns:xlink="http://www.w3.org/1999/xlink" x="0px" y="0px" width="1000px" height="1000px"
	 viewBox="0 0 1000 1000" xml:space="preserve">
<g>
	<path d="M989.506,474.023c-10.467-12.391-21.984-24.071-33.52-35.516c-62.271-61.844-133.822-116.981-212.107-156.982
		c-50.011-25.535-103.542-46.181-159.008-56.068c-28.216-5.049-55.871-7.638-84.871-7.689c-28.204,0.052-56.435,2.641-84.65,7.689
		c-55.466,9.888-108.887,30.533-158.897,56.068c-78.285,40.001-149.78,95.139-212.052,156.982
		c-11.535,11.444-23.025,23.125-33.492,35.516c-13.954,16.563-13.954,36.147,0,52.711c31.906,37.781,69.839,71.403,108.429,102.143
		c83.106,66.208,178.139,121.582,283.058,143.898c32.447,6.883,65.006,10.239,97.605,10.206c33,0.033,65.375-3.323,97.822-10.206
		c104.92-22.316,200.169-77.69,283.275-143.898c38.59-30.739,76.516-64.361,108.422-102.143
		C1003.474,510.171,1003.46,490.587,989.506,474.023z M500,692.769c-106.071-0.205-191.996-86.243-191.996-192.401
		c0-106.104,85.925-192.173,191.996-192.378c107,0.205,191.996,86.273,191.996,192.378C691.996,606.525,607,692.563,500,692.769z"/>
	<path d="M499.937,425.958c-41.114,0-74.394,33.302-74.394,74.409c0,41.13,33.279,74.425,74.394,74.425
		c41.107,0,74.425-33.295,74.425-74.425C574.361,459.26,541.044,425.958,499.937,425.958z"/>
</g>
</svg>
