<?xml version="1.0" encoding="utf-8"?>
<!-- Generator: Adobe Illustrator 15.0.0, SVG Export Plug-In . SVG Version: 6.00 Build 0)  -->
<!DOCTYPE svg PUBLIC "-//W3C//DTD SVG 1.1 Basic//EN" "http://www.w3.org/Graphics/SVG/1.1/DTD/svg11-basic.dtd">
<svg version="1.1" baseProfile="basic" id="Layer_1"
	 xmlns="http://www.w3.org/2000/svg" xmlns:xlink="http://www.w3.org/1999/xlink" x="0px" y="0px" width="1000px" height="1000px"
	 viewBox="0 0 1000 1000" xml:space="preserve">
<path d="M500.004,2.109c-274.54,0-497.891,223.358-497.891,497.883c0,274.555,223.351,497.898,497.891,497.898
	c274.532,0,497.883-223.344,497.883-497.898C997.887,225.468,774.536,2.109,500.004,2.109z M718.636,590.564
	c11.612-27.904,18.077-58.482,18.077-90.572c0-32.059-6.465-62.641-18.077-90.542l220.855-91.495
	c23.331,56.114,36.274,117.599,36.274,182.037c0,64.484-12.943,125.953-36.274,182.037L718.636,590.564z M500.004,714.584
	c-118.328,0-214.592-96.264-214.592-214.592c0-118.297,96.264-214.565,214.592-214.565s214.592,96.268,214.592,214.565
	C714.596,618.32,618.332,714.584,500.004,714.584z M60.516,682.029c-23.331-56.084-36.27-117.553-36.27-182.037
	c0-64.438,12.939-125.923,36.27-182.037l220.848,91.495c-11.608,27.901-18.078,58.483-18.078,90.542
	c0,32.09,6.47,62.668,18.078,90.572L60.516,682.029z M682.049,60.52l-91.488,220.856c-27.916-11.604-58.482-18.101-90.557-18.101
	s-62.649,6.497-90.565,18.101L317.951,60.52c56.114-23.308,117.6-36.286,182.053-36.286S625.942,37.212,682.049,60.52z
	 M317.951,939.479l91.488-220.841c27.916,11.631,58.491,18.086,90.565,18.086s62.648-6.455,90.557-18.086l91.48,220.841
	c-56.099,23.339-117.584,36.286-182.037,36.286S374.065,962.803,317.951,939.479z"/>
</svg>
