<?xml version="1.0" encoding="utf-8"?>
<!-- Generator: Adobe Illustrator 15.0.0, SVG Export Plug-In . SVG Version: 6.00 Build 0)  -->
<!DOCTYPE svg PUBLIC "-//W3C//DTD SVG 1.1 Basic//EN" "http://www.w3.org/Graphics/SVG/1.1/DTD/svg11-basic.dtd">
<svg version="1.1" baseProfile="basic" id="Layer_1"
	 xmlns="http://www.w3.org/2000/svg" xmlns:xlink="http://www.w3.org/1999/xlink" x="0px" y="0px" width="1000px" height="1000px"
	 viewBox="0 0 1000 1000" xml:space="preserve">
<g>
	<polygon points="314.27,228.639 310.672,228.639 273.506,93.75 215.82,93.75 283.996,297.516 283.996,431.213 341.244,431.213 
		341.244,291.201 407.896,93.75 349.705,93.75 	"/>
	<path d="M539.553,194.059c-13.488-12.053-30.73-18.09-51.785-18.09c-23.109,0-41.543,5.732-55.207,17.146
		c-13.707,11.414-20.537,26.764-20.537,46.084v129.027c0,21.148,6.676,37.99,20.02,50.504c13.33,12.482,31.152,18.77,53.402,18.77
		c23.098,0,41.23-6.07,54.469-18.189c13.125-12.145,19.719-28.805,19.719-50.105V240.598
		C559.633,221.621,552.914,206.086,539.553,194.059z M507.818,372.928c0,6.65-2.023,11.9-6.107,15.748
		c-4.064,3.783-9.518,5.701-16.422,5.701c-6.707,0-11.902-1.855-15.5-5.613c-3.598-3.752-5.432-9.004-5.432-15.836V237.307
		c0-5.432,1.949-9.828,5.795-13.182c3.908-3.359,8.947-5.008,15.137-5.008c6.748,0,12.182,1.648,16.328,5.008
		c4.117,3.354,6.201,7.75,6.201,13.182V372.928z"/>
	<path d="M695.135,371.217c-4.707,5.465-9.953,9.922-15.635,13.426c-5.732,3.484-10.492,5.25-14.213,5.25
		c-4.76,0-8.242-1.342-10.316-3.996c-2.135-2.623-3.297-6.867-3.297-12.789V182.25h-50.779v208.072
		c0,14.826,2.986,25.941,8.906,33.354c5.982,7.418,14.773,11.139,26.613,11.139c9.518,0,19.344-2.652,29.484-7.936
		c10.191-5.277,19.957-13.063,29.236-23.16v27.494h50.904V182.25h-50.904V371.217z"/>
	<path d="M833.342,0.004H166.689C75.012,0.004,0.004,75.012,0.004,166.689v489.563v177.059c0,91.74,75.008,166.686,166.686,166.686
		h666.652c91.678,0,166.654-74.945,166.654-166.686V656.252V166.689C999.996,75.012,925.02,0.004,833.342,0.004z M318.24,611.785
		h-52.666v261.844H214.67V611.785h-52.676v-44.49H318.24V611.785z M472.412,873.629h-45.16v-24.84
		c-8.398,9.217-17.033,16.141-26.094,20.932c-9,4.852-17.729,7.205-26.219,7.205c-10.492,0-18.279-3.328-23.617-10.078
		c-5.246-6.77-7.932-16.785-7.932-30.271V647.584h45.16v173.367c0,5.34,0.975,9.219,2.811,11.57
		c1.947,2.436,5.039,3.629,9.277,3.629c3.268,0,7.506-1.586,12.576-4.789c5.121-3.143,9.766-7.205,14.037-12.088V647.584h45.16
		V873.629z M646.904,826.902c0,15.992-3.533,28.293-10.615,36.836c-7.051,8.512-17.334,12.758-30.697,12.758
		c-8.885,0-16.754-1.586-23.627-4.914c-6.926-3.268-13.426-8.361-19.314-15.289v17.336h-45.658V567.295h45.658v98.598
		c6.107-6.807,12.576-12.146,19.346-15.686c6.904-3.572,13.83-5.338,20.848-5.338c14.309,0,25.234,4.82,32.74,14.404
		c7.568,9.641,11.32,23.709,11.32,42.205V826.902z M808.863,765.994h-86.391v42.631c0,11.902,1.432,20.145,4.396,24.746
		c3.018,4.615,8.117,6.869,15.313,6.869c7.506,0,12.73-1.953,15.717-5.887c2.934-3.879,4.488-12.451,4.488-25.729v-10.314h46.477
		v11.596c0,23.166-5.617,40.648-17.021,52.4c-11.27,11.684-28.168,17.484-50.697,17.484c-20.227,0-36.193-6.193-47.793-18.613
		c-11.592-12.389-17.48-29.516-17.48-51.271V708.373c0-19.531,6.438-35.549,19.221-47.912c12.795-12.328,29.205-18.49,49.443-18.49
		c20.693,0,36.586,5.732,47.699,17.178c11.104,11.414,16.629,27.832,16.629,49.225V765.994z M968.75,562.785
		C940.188,524.736,894.717,500,843.75,500h-687.5c-50.965,0-96.428,24.73-125,62.785V166.689
		c0-74.676,60.764-135.439,135.439-135.439h666.652c74.676,0,135.408,60.764,135.408,135.439V562.785z"/>
	<path d="M742.607,681.553c-7.197,0-12.328,2.012-15.469,6.189c-3.174,4.002-4.666,10.834-4.666,20.268v22.824h39.914V708.01
		c0-9.434-1.617-16.266-4.758-20.268C754.57,683.564,749.48,681.553,742.607,681.553z"/>
	<path d="M581.539,680.756c-3.234,0-6.438,0.672-9.58,2.195c-3.141,1.438-6.23,3.754-9.309,6.896v140.809
		c3.629,3.666,7.236,6.381,10.709,7.967c3.482,1.617,7.082,2.441,10.896,2.441c5.557,0,9.59-1.586,12.213-4.789
		c2.561-3.172,3.898-8.305,3.898-15.566V704.008c0-7.66-1.557-13.455-4.76-17.396C592.311,682.678,587.615,680.756,581.539,680.756z
		"/>
</g>
</svg>
