<?xml version="1.0" encoding="utf-8"?>
<!-- Generator: Adobe Illustrator 15.0.0, SVG Export Plug-In . SVG Version: 6.00 Build 0)  -->
<!DOCTYPE svg PUBLIC "-//W3C//DTD SVG 1.1 Basic//EN" "http://www.w3.org/Graphics/SVG/1.1/DTD/svg11-basic.dtd">
<svg version="1.1" baseProfile="basic" id="Layer_1"
	 xmlns="http://www.w3.org/2000/svg" xmlns:xlink="http://www.w3.org/1999/xlink" x="0px" y="0px" width="1000px" height="1000px"
	 viewBox="0 0 1000 1000" xml:space="preserve">
<path d="M833.347-0.004H166.682C75.008-0.004-0.004,75.011-0.004,166.685v666.63c0,91.74,75.012,166.689,166.686,166.689h333.314
	v-375.98h-125V468.75h125v-78.125c0-112,84.107-203.129,187.508-203.129h124.998v154.787H687.504
	c-14.747,0-31.25,20.051-31.25,46.875v79.592h156.248v155.273H656.254v375.98h177.093c91.674,0,166.657-74.949,166.657-166.689
	v-666.63C1000.004,75.011,925.021-0.004,833.347-0.004z"/>
</svg>
