<?xml version="1.0" encoding="utf-8"?>
<!-- Generator: Adobe Illustrator 15.0.0, SVG Export Plug-In . SVG Version: 6.00 Build 0)  -->
<!DOCTYPE svg PUBLIC "-//W3C//DTD SVG 1.1 Basic//EN" "http://www.w3.org/Graphics/SVG/1.1/DTD/svg11-basic.dtd">
<svg version="1.1" baseProfile="basic" id="Layer_1"
	 xmlns="http://www.w3.org/2000/svg" xmlns:xlink="http://www.w3.org/1999/xlink" x="0px" y="0px" width="1000px" height="1000px"
	 viewBox="0 0 1000 1000" xml:space="preserve">
<path d="M833.507,0H165.277C73.381,0,0,75.963,0,167.85v664.406C0,926.419,73.381,1000,165.277,1000h668.229
	C925.396,1000,1000,926.419,1000,832.256V167.85C1000,75.963,925.396,0,833.507,0z M511,30h224v143H511V30z M265,30h215v143H265V30z
	 M30,173v-5.15C30,92.609,90.037,30,165.277,30H235v143H30z M796,657H561v225H439V657H205V524h234V299h122v225h235V657z M970,173
	H766V30h67.507C908.729,30,970,92.609,970,167.85V173z"/>
</svg>
