<?xml version="1.0" encoding="utf-8"?>
<!-- Generator: Adobe Illustrator 15.0.0, SVG Export Plug-In . SVG Version: 6.00 Build 0)  -->
<!DOCTYPE svg PUBLIC "-//W3C//DTD SVG 1.1 Basic//EN" "http://www.w3.org/Graphics/SVG/1.1/DTD/svg11-basic.dtd">
<svg version="1.1" baseProfile="basic" id="Layer_1"
	 xmlns="http://www.w3.org/2000/svg" xmlns:xlink="http://www.w3.org/1999/xlink" x="0px" y="0px" width="1000px" height="1000px"
	 viewBox="0 0 1000 1000" xml:space="preserve">
<path d="M499.902-0.115c-276.02,0-499.771,223.717-499.771,499.756c0,275.986,223.751,499.725,499.771,499.725
	c275.985,0,499.756-223.738,499.756-499.725C999.658,223.602,775.888-0.115,499.902-0.115z M421.747,171.362
	c19.791-18.249,43.396-27.396,70.793-27.396c27.404,0,50.911,9.147,70.534,27.396c19.637,18.265,29.418,40.269,29.418,65.964
	c0,25.727-9.872,47.631-29.662,65.743c-19.791,18.089-43.221,27.138-70.29,27.138c-27.397,0-51.003-9.049-70.793-27.138
	c-19.791-18.112-29.686-40.017-29.686-65.743C392.061,211.631,401.956,189.627,421.747,171.362z M666.597,855.284H345.88v-61.508
	c8.797-0.595,17.426-1.358,25.879-2.235c8.469-0.916,15.732-2.388,21.82-4.479c10.833-3.556,18.433-8.729,22.842-15.404
	c4.387-6.729,6.592-15.586,6.592-26.611V513.785c0-10.444-2.708-19.615-8.118-27.496c-5.409-7.912-12.177-14.236-20.287-18.99
	c-6.096-3.593-15.32-7.003-27.672-10.269c-12.352-3.319-23.583-5.379-33.729-6.287v-32.615l256.256-4.937v326.065
	c0,10.406,2.532,19.264,7.606,26.581c5.073,7.293,12.367,12.733,21.828,16.318c6.767,2.671,14.205,5.059,22.315,7.142
	c8.125,2.091,16.594,3.586,25.383,4.479V855.284z"/>
</svg>
