<?xml version="1.0" encoding="utf-8"?>
<!-- Generator: Adobe Illustrator 15.0.0, SVG Export Plug-In . SVG Version: 6.00 Build 0)  -->
<!DOCTYPE svg PUBLIC "-//W3C//DTD SVG 1.1 Basic//EN" "http://www.w3.org/Graphics/SVG/1.1/DTD/svg11-basic.dtd">
<svg version="1.1" baseProfile="basic" id="Layer_1"
	 xmlns="http://www.w3.org/2000/svg" xmlns:xlink="http://www.w3.org/1999/xlink" x="0px" y="0px" width="1000px" height="1000px"
	 viewBox="0 0 1000 1000" xml:space="preserve">
<path d="M833.329,0.02H166.697C75.024,0.02,0.017,75.029,0.017,166.701v666.602c0,91.73,75.008,166.678,166.681,166.678h666.632
	c91.672,0,166.654-74.947,166.654-166.678V166.701C999.983,75.029,925.001,0.02,833.329,0.02z M265.97,818.168
	c-46.844,0-84.902-37.783-84.902-84.596c0-46.564,38.059-84.773,84.902-84.773c47.027,0,85.018,38.209,85.018,84.773
	C350.987,780.385,312.997,818.168,265.97,818.168z M479.366,818.898c0-79.891-31.062-155.088-87.364-211.359
	c-56.362-56.393-131.223-87.52-210.839-87.52V397.77c232.076,0,421.006,188.9,421.006,421.129H479.366z M696.312,818.898
	c0-284.23-231.104-515.547-514.999-515.547V181.045c351.555,0,637.619,286.24,637.619,637.854H696.312z"/>
</svg>
