<?xml version="1.0" encoding="utf-8"?>
<!-- Generator: Adobe Illustrator 15.0.0, SVG Export Plug-In . SVG Version: 6.00 Build 0)  -->
<!DOCTYPE svg PUBLIC "-//W3C//DTD SVG 1.1 Basic//EN" "http://www.w3.org/Graphics/SVG/1.1/DTD/svg11-basic.dtd">
<svg version="1.1" baseProfile="basic" id="Layer_1"
	 xmlns="http://www.w3.org/2000/svg" xmlns:xlink="http://www.w3.org/1999/xlink" x="0px" y="0px" width="1000px" height="1000px"
	 viewBox="0 0 1000 1000" xml:space="preserve">
<g>
	<path d="M877.508,916.887L653.791,588.162c127.854-101.244,163.994-284.53,77.805-427.989
		C637.983,4.361,435.079-46.222,279.279,47.368c-155.792,93.62-206.375,296.521-112.77,452.316
		c84.403,140.519,257.743,195.407,405.242,136.169l185.829,353.1c5.761,10.961,19.143,14.695,29.747,8.348l83.565-50.236
		C881.506,940.69,884.488,927.114,877.508,916.887z M564.42,521.932c-105.888,63.599-243.773,29.217-307.38-76.668
		c-63.606-105.857-29.206-243.744,76.667-307.35C439.55,74.3,577.437,108.693,641.042,214.566
		C704.656,320.424,670.278,458.341,564.42,521.932z"/>
</g>
</svg>
