<?xml version="1.0" encoding="utf-8"?>
<!-- Generator: Adobe Illustrator 15.0.0, SVG Export Plug-In . SVG Version: 6.00 Build 0)  -->
<!DOCTYPE svg PUBLIC "-//W3C//DTD SVG 1.1 Basic//EN" "http://www.w3.org/Graphics/SVG/1.1/DTD/svg11-basic.dtd">
<svg version="1.1" baseProfile="basic" id="Layer_1"
	 xmlns="http://www.w3.org/2000/svg" xmlns:xlink="http://www.w3.org/1999/xlink" x="0px" y="0px" width="1000px" height="1000px"
	 viewBox="0 0 1000 1000" xml:space="preserve">
<path d="M861.222,434.624c2.151,16.372,32.349,40.604,33.325,57.105c1.739,29.999-38.788,88.699-66.65,99.976
	c-44.205,17.884-268.937,9.514-268.937,9.514c-21.973,38.399,39.139,133.217,55.938,174.156
	c24.658,59.998,20.493,139.588-10.711,180.466c-38.102,49.958-108.048,53.284-109.498,30.93
	c-10.421-162.132-41.427-207.123-82.992-239.166c-24.963-19.249-46.783-37.323-58.304-66.681
	c-70.831-180.375-127.991-209.732-155.319-224.93H110.58l0,0h-5.172V49.057L390.03,10.979c0,0,260.635-24.666,342.728,0
	c25.803,7.736,70.373,46.517,80.887,71.396c6.027,14.282-2.319,48.088,4.775,61.874c10.498,20.424,54.795,46.005,54.749,73.769
	c-0.03,19.798-23.102,54.055-21.423,73.791c1.678,19.775,42.877,46.853,42.831,66.65
	C894.516,379.219,858.49,414.032,861.222,434.624z"/>
</svg>
