<?xml version="1.0" encoding="utf-8"?>
<!-- Generator: Adobe Illustrator 15.0.0, SVG Export Plug-In . SVG Version: 6.00 Build 0)  -->
<!DOCTYPE svg PUBLIC "-//W3C//DTD SVG 1.1 Basic//EN" "http://www.w3.org/Graphics/SVG/1.1/DTD/svg11-basic.dtd">
<svg version="1.1" baseProfile="basic" id="Layer_1"
	 xmlns="http://www.w3.org/2000/svg" xmlns:xlink="http://www.w3.org/1999/xlink" x="0px" y="0px" width="1000px" height="1000px"
	 viewBox="0 0 1000 1000" xml:space="preserve">
<path d="M833.344-0.002H166.683C75.008-0.002-0.004,75.01-0.004,166.688v666.627c0,91.736,75.012,166.688,166.687,166.688h666.661
	c91.678,0,166.66-74.951,166.66-166.688V166.688C1000.004,75.01,925.021-0.002,833.344-0.002z M501.954,656.252h171.691
	c43.272,0,76.355,33.447,76.355,77.148c0,43.674-35.706,78.492-78.979,78.492H499.357c-137.847,0-249.359-120.057-249.359-268.371
	v-276.92c0-43.67,35.066-79.102,78.309-79.102c43.275,0,75.991,35.432,75.991,79.102v77.15h267.363
	c43.274,0,78.34,34.975,78.34,78.123c0,43.123-35.065,78.098-78.34,78.098H404.298v43.549
	C404.298,603.551,451.354,656.252,501.954,656.252z"/>
</svg>
